%TF.GenerationSoftware,KiCad,Pcbnew,9.0.0*%
%TF.CreationDate,2025-07-16T00:49:38-07:00*%
%TF.ProjectId,microsd_express,6d696372-6f73-4645-9f65-787072657373,rev?*%
%TF.SameCoordinates,Original*%
%TF.FileFunction,Other,User*%
%FSLAX46Y46*%
G04 Gerber Fmt 4.6, Leading zero omitted, Abs format (unit mm)*
G04 Created by KiCad (PCBNEW 9.0.0) date 2025-07-16 00:49:38*
%MOMM*%
%LPD*%
G01*
G04 APERTURE LIST*
%ADD10C,0.100000*%
%ADD11C,0.150000*%
%ADD12C,0.050000*%
G04 APERTURE END LIST*
D10*
X102750000Y-81000000D02*
X102750000Y-82000000D01*
X102750000Y-82000000D02*
X102750000Y-81000000D01*
X101750000Y-82000000D02*
X102750000Y-82000000D01*
X99500000Y-78750000D02*
X102750000Y-82000000D01*
D11*
X91809524Y-74038704D02*
X91952381Y-74086323D01*
X91952381Y-74086323D02*
X92190476Y-74086323D01*
X92190476Y-74086323D02*
X92285714Y-74038704D01*
X92285714Y-74038704D02*
X92333333Y-73991084D01*
X92333333Y-73991084D02*
X92380952Y-73895846D01*
X92380952Y-73895846D02*
X92380952Y-73800608D01*
X92380952Y-73800608D02*
X92333333Y-73705370D01*
X92333333Y-73705370D02*
X92285714Y-73657751D01*
X92285714Y-73657751D02*
X92190476Y-73610132D01*
X92190476Y-73610132D02*
X92000000Y-73562513D01*
X92000000Y-73562513D02*
X91904762Y-73514894D01*
X91904762Y-73514894D02*
X91857143Y-73467275D01*
X91857143Y-73467275D02*
X91809524Y-73372037D01*
X91809524Y-73372037D02*
X91809524Y-73276799D01*
X91809524Y-73276799D02*
X91857143Y-73181561D01*
X91857143Y-73181561D02*
X91904762Y-73133942D01*
X91904762Y-73133942D02*
X92000000Y-73086323D01*
X92000000Y-73086323D02*
X92238095Y-73086323D01*
X92238095Y-73086323D02*
X92380952Y-73133942D01*
X92666667Y-73086323D02*
X93238095Y-73086323D01*
X92952381Y-74086323D02*
X92952381Y-73086323D01*
X93571429Y-74086323D02*
X93571429Y-73086323D01*
X94380952Y-73562513D02*
X94047619Y-73562513D01*
X94047619Y-74086323D02*
X94047619Y-73086323D01*
X94047619Y-73086323D02*
X94523809Y-73086323D01*
X95238095Y-73562513D02*
X94904762Y-73562513D01*
X94904762Y-74086323D02*
X94904762Y-73086323D01*
X94904762Y-73086323D02*
X95380952Y-73086323D01*
X95761905Y-73562513D02*
X96095238Y-73562513D01*
X96238095Y-74086323D02*
X95761905Y-74086323D01*
X95761905Y-74086323D02*
X95761905Y-73086323D01*
X95761905Y-73086323D02*
X96238095Y-73086323D01*
X96666667Y-74086323D02*
X96666667Y-73086323D01*
X96666667Y-73086323D02*
X97238095Y-74086323D01*
X97238095Y-74086323D02*
X97238095Y-73086323D01*
X97714286Y-73562513D02*
X98047619Y-73562513D01*
X98190476Y-74086323D02*
X97714286Y-74086323D01*
X97714286Y-74086323D02*
X97714286Y-73086323D01*
X97714286Y-73086323D02*
X98190476Y-73086323D01*
X99190476Y-74086323D02*
X98857143Y-73610132D01*
X98619048Y-74086323D02*
X98619048Y-73086323D01*
X98619048Y-73086323D02*
X99000000Y-73086323D01*
X99000000Y-73086323D02*
X99095238Y-73133942D01*
X99095238Y-73133942D02*
X99142857Y-73181561D01*
X99142857Y-73181561D02*
X99190476Y-73276799D01*
X99190476Y-73276799D02*
X99190476Y-73419656D01*
X99190476Y-73419656D02*
X99142857Y-73514894D01*
X99142857Y-73514894D02*
X99095238Y-73562513D01*
X99095238Y-73562513D02*
X99000000Y-73610132D01*
X99000000Y-73610132D02*
X98619048Y-73610132D01*
X92476191Y-74696267D02*
X92571429Y-74696267D01*
X92571429Y-74696267D02*
X92666667Y-74743886D01*
X92666667Y-74743886D02*
X92714286Y-74791505D01*
X92714286Y-74791505D02*
X92761905Y-74886743D01*
X92761905Y-74886743D02*
X92809524Y-75077219D01*
X92809524Y-75077219D02*
X92809524Y-75315314D01*
X92809524Y-75315314D02*
X92761905Y-75505790D01*
X92761905Y-75505790D02*
X92714286Y-75601028D01*
X92714286Y-75601028D02*
X92666667Y-75648648D01*
X92666667Y-75648648D02*
X92571429Y-75696267D01*
X92571429Y-75696267D02*
X92476191Y-75696267D01*
X92476191Y-75696267D02*
X92380953Y-75648648D01*
X92380953Y-75648648D02*
X92333334Y-75601028D01*
X92333334Y-75601028D02*
X92285715Y-75505790D01*
X92285715Y-75505790D02*
X92238096Y-75315314D01*
X92238096Y-75315314D02*
X92238096Y-75077219D01*
X92238096Y-75077219D02*
X92285715Y-74886743D01*
X92285715Y-74886743D02*
X92333334Y-74791505D01*
X92333334Y-74791505D02*
X92380953Y-74743886D01*
X92380953Y-74743886D02*
X92476191Y-74696267D01*
X93238096Y-75601028D02*
X93285715Y-75648648D01*
X93285715Y-75648648D02*
X93238096Y-75696267D01*
X93238096Y-75696267D02*
X93190477Y-75648648D01*
X93190477Y-75648648D02*
X93238096Y-75601028D01*
X93238096Y-75601028D02*
X93238096Y-75696267D01*
X94238095Y-75696267D02*
X93666667Y-75696267D01*
X93952381Y-75696267D02*
X93952381Y-74696267D01*
X93952381Y-74696267D02*
X93857143Y-74839124D01*
X93857143Y-74839124D02*
X93761905Y-74934362D01*
X93761905Y-74934362D02*
X93666667Y-74981981D01*
X94666667Y-75696267D02*
X94666667Y-74696267D01*
X94666667Y-74696267D02*
X95000000Y-75410552D01*
X95000000Y-75410552D02*
X95333333Y-74696267D01*
X95333333Y-74696267D02*
X95333333Y-75696267D01*
X95809524Y-75696267D02*
X95809524Y-74696267D01*
X95809524Y-74696267D02*
X96142857Y-75410552D01*
X96142857Y-75410552D02*
X96476190Y-74696267D01*
X96476190Y-74696267D02*
X96476190Y-75696267D01*
X97714286Y-75696267D02*
X97714286Y-74696267D01*
X97714286Y-74696267D02*
X98095238Y-74696267D01*
X98095238Y-74696267D02*
X98190476Y-74743886D01*
X98190476Y-74743886D02*
X98238095Y-74791505D01*
X98238095Y-74791505D02*
X98285714Y-74886743D01*
X98285714Y-74886743D02*
X98285714Y-75029600D01*
X98285714Y-75029600D02*
X98238095Y-75124838D01*
X98238095Y-75124838D02*
X98190476Y-75172457D01*
X98190476Y-75172457D02*
X98095238Y-75220076D01*
X98095238Y-75220076D02*
X97714286Y-75220076D01*
X98714286Y-75696267D02*
X98714286Y-74696267D01*
X92142857Y-76306211D02*
X92714285Y-76306211D01*
X92428571Y-77306211D02*
X92428571Y-76306211D01*
X93238095Y-76306211D02*
X93428571Y-76306211D01*
X93428571Y-76306211D02*
X93523809Y-76353830D01*
X93523809Y-76353830D02*
X93619047Y-76449068D01*
X93619047Y-76449068D02*
X93666666Y-76639544D01*
X93666666Y-76639544D02*
X93666666Y-76972877D01*
X93666666Y-76972877D02*
X93619047Y-77163353D01*
X93619047Y-77163353D02*
X93523809Y-77258592D01*
X93523809Y-77258592D02*
X93428571Y-77306211D01*
X93428571Y-77306211D02*
X93238095Y-77306211D01*
X93238095Y-77306211D02*
X93142857Y-77258592D01*
X93142857Y-77258592D02*
X93047619Y-77163353D01*
X93047619Y-77163353D02*
X93000000Y-76972877D01*
X93000000Y-76972877D02*
X93000000Y-76639544D01*
X93000000Y-76639544D02*
X93047619Y-76449068D01*
X93047619Y-76449068D02*
X93142857Y-76353830D01*
X93142857Y-76353830D02*
X93238095Y-76306211D01*
X94095238Y-77306211D02*
X94095238Y-76306211D01*
X94095238Y-76306211D02*
X94476190Y-76306211D01*
X94476190Y-76306211D02*
X94571428Y-76353830D01*
X94571428Y-76353830D02*
X94619047Y-76401449D01*
X94619047Y-76401449D02*
X94666666Y-76496687D01*
X94666666Y-76496687D02*
X94666666Y-76639544D01*
X94666666Y-76639544D02*
X94619047Y-76734782D01*
X94619047Y-76734782D02*
X94571428Y-76782401D01*
X94571428Y-76782401D02*
X94476190Y-76830020D01*
X94476190Y-76830020D02*
X94095238Y-76830020D01*
X95809524Y-77258592D02*
X95952381Y-77306211D01*
X95952381Y-77306211D02*
X96190476Y-77306211D01*
X96190476Y-77306211D02*
X96285714Y-77258592D01*
X96285714Y-77258592D02*
X96333333Y-77210972D01*
X96333333Y-77210972D02*
X96380952Y-77115734D01*
X96380952Y-77115734D02*
X96380952Y-77020496D01*
X96380952Y-77020496D02*
X96333333Y-76925258D01*
X96333333Y-76925258D02*
X96285714Y-76877639D01*
X96285714Y-76877639D02*
X96190476Y-76830020D01*
X96190476Y-76830020D02*
X96000000Y-76782401D01*
X96000000Y-76782401D02*
X95904762Y-76734782D01*
X95904762Y-76734782D02*
X95857143Y-76687163D01*
X95857143Y-76687163D02*
X95809524Y-76591925D01*
X95809524Y-76591925D02*
X95809524Y-76496687D01*
X95809524Y-76496687D02*
X95857143Y-76401449D01*
X95857143Y-76401449D02*
X95904762Y-76353830D01*
X95904762Y-76353830D02*
X96000000Y-76306211D01*
X96000000Y-76306211D02*
X96238095Y-76306211D01*
X96238095Y-76306211D02*
X96380952Y-76353830D01*
X96809524Y-77306211D02*
X96809524Y-76306211D01*
X97285714Y-77306211D02*
X97285714Y-76306211D01*
X97285714Y-76306211D02*
X97523809Y-76306211D01*
X97523809Y-76306211D02*
X97666666Y-76353830D01*
X97666666Y-76353830D02*
X97761904Y-76449068D01*
X97761904Y-76449068D02*
X97809523Y-76544306D01*
X97809523Y-76544306D02*
X97857142Y-76734782D01*
X97857142Y-76734782D02*
X97857142Y-76877639D01*
X97857142Y-76877639D02*
X97809523Y-77068115D01*
X97809523Y-77068115D02*
X97761904Y-77163353D01*
X97761904Y-77163353D02*
X97666666Y-77258592D01*
X97666666Y-77258592D02*
X97523809Y-77306211D01*
X97523809Y-77306211D02*
X97285714Y-77306211D01*
X98285714Y-76782401D02*
X98619047Y-76782401D01*
X98761904Y-77306211D02*
X98285714Y-77306211D01*
X98285714Y-77306211D02*
X98285714Y-76306211D01*
X98285714Y-76306211D02*
X98761904Y-76306211D01*
D12*
%TO.C,J2*%
X103500000Y-79200000D02*
X103500000Y-82400000D01*
X103800000Y-82700000D02*
X111700000Y-82700000D01*
X112000000Y-79200000D02*
X103500000Y-79200000D01*
X112000000Y-82400000D02*
X112000000Y-79200000D01*
X103800000Y-82700000D02*
G75*
G02*
X103500000Y-82400000I0J300000D01*
G01*
X112000000Y-82400000D02*
G75*
G02*
X111700000Y-82700000I-300000J0D01*
G01*
%TD*%
M02*
