%TF.GenerationSoftware,KiCad,Pcbnew,9.0.0*%
%TF.CreationDate,2025-07-16T00:49:38-07:00*%
%TF.ProjectId,microsd_express,6d696372-6f73-4645-9f65-787072657373,rev?*%
%TF.SameCoordinates,Original*%
%TF.FileFunction,Copper,L2,Bot*%
%TF.FilePolarity,Positive*%
%FSLAX46Y46*%
G04 Gerber Fmt 4.6, Leading zero omitted, Abs format (unit mm)*
G04 Created by KiCad (PCBNEW 9.0.0) date 2025-07-16 00:49:38*
%MOMM*%
%LPD*%
G01*
G04 APERTURE LIST*
G04 Aperture macros list*
%AMRoundRect*
0 Rectangle with rounded corners*
0 $1 Rounding radius*
0 $2 $3 $4 $5 $6 $7 $8 $9 X,Y pos of 4 corners*
0 Add a 4 corners polygon primitive as box body*
4,1,4,$2,$3,$4,$5,$6,$7,$8,$9,$2,$3,0*
0 Add four circle primitives for the rounded corners*
1,1,$1+$1,$2,$3*
1,1,$1+$1,$4,$5*
1,1,$1+$1,$6,$7*
1,1,$1+$1,$8,$9*
0 Add four rect primitives between the rounded corners*
20,1,$1+$1,$2,$3,$4,$5,0*
20,1,$1+$1,$4,$5,$6,$7,0*
20,1,$1+$1,$6,$7,$8,$9,0*
20,1,$1+$1,$8,$9,$2,$3,0*%
G04 Aperture macros list end*
%TA.AperFunction,SMDPad,CuDef*%
%ADD10R,0.350000X2.600000*%
%TD*%
%TA.AperFunction,SMDPad,CuDef*%
%ADD11RoundRect,0.140000X0.140000X0.170000X-0.140000X0.170000X-0.140000X-0.170000X0.140000X-0.170000X0*%
%TD*%
%TA.AperFunction,SMDPad,CuDef*%
%ADD12C,0.750000*%
%TD*%
%TA.AperFunction,SMDPad,CuDef*%
%ADD13RoundRect,0.140000X0.170000X-0.140000X0.170000X0.140000X-0.170000X0.140000X-0.170000X-0.140000X0*%
%TD*%
%TA.AperFunction,ViaPad*%
%ADD14C,0.550000*%
%TD*%
%TA.AperFunction,ViaPad*%
%ADD15C,0.600000*%
%TD*%
%TA.AperFunction,Conductor*%
%ADD16C,0.200000*%
%TD*%
%TA.AperFunction,Conductor*%
%ADD17C,0.400000*%
%TD*%
%TA.AperFunction,Conductor*%
%ADD18C,0.121920*%
%TD*%
%TA.AperFunction,Conductor*%
%ADD19C,0.127000*%
%TD*%
G04 APERTURE END LIST*
D10*
%TO.P,J2,1,Pin_1*%
%TO.N,+5V*%
X111500000Y-81100000D03*
%TO.P,J2,2,Pin_2*%
X111000000Y-81100000D03*
%TO.P,J2,3,Pin_3*%
%TO.N,GND*%
X110500000Y-81100000D03*
%TO.P,J2,4,Pin_4*%
%TO.N,/PCIE_CLK_P*%
X110000000Y-81100000D03*
%TO.P,J2,5,Pin_5*%
%TO.N,/PCIE_CLK_N*%
X109500000Y-81100000D03*
%TO.P,J2,6,Pin_6*%
%TO.N,GND*%
X109000000Y-81100000D03*
%TO.P,J2,7,Pin_7*%
%TO.N,/PCIE_RX_P*%
X108500000Y-81100000D03*
%TO.P,J2,8,Pin_8*%
%TO.N,/PCIE_RX_N*%
X108000000Y-81100000D03*
%TO.P,J2,9,Pin_9*%
%TO.N,GND*%
X107500000Y-81100000D03*
%TO.P,J2,10,Pin_10*%
%TO.N,/PCIE_TX_P*%
X107000000Y-81100000D03*
%TO.P,J2,11,Pin_11*%
%TO.N,/PCIE_TX_N*%
X106500000Y-81100000D03*
%TO.P,J2,12,Pin_12*%
%TO.N,GND*%
X106000000Y-81100000D03*
%TO.P,J2,13,Pin_13*%
%TO.N,/PCIE_PWR_EN*%
X105500000Y-81100000D03*
%TO.P,J2,14,Pin_14*%
%TO.N,/PCIE_DET_WAKE*%
X105000000Y-81100000D03*
%TO.P,J2,15,Pin_15*%
%TO.N,/PCIE_CLKREQ_N*%
X104500000Y-81100000D03*
%TO.P,J2,16,Pin_16*%
%TO.N,/PCIE_RST_B*%
X104000000Y-81100000D03*
%TD*%
D11*
%TO.P,C4,1*%
%TO.N,/PCIE_RX_P*%
X108225718Y-66648878D03*
%TO.P,C4,2*%
%TO.N,Net-(C4-Pad2)*%
X107265718Y-66648878D03*
%TD*%
D12*
%TO.P,TP1,1,1*%
%TO.N,+1V8*%
X115000000Y-65250000D03*
%TD*%
D11*
%TO.P,C8,1*%
%TO.N,/PCIE_RX_N*%
X108230000Y-67766472D03*
%TO.P,C8,2*%
%TO.N,Net-(C8-Pad2)*%
X107270000Y-67766472D03*
%TD*%
D12*
%TO.P,TP2,1,1*%
%TO.N,+3V3*%
X120550000Y-71110000D03*
%TD*%
D13*
%TO.P,C10,1*%
%TO.N,+1V8*%
X106550000Y-72837274D03*
%TO.P,C10,2*%
%TO.N,GND*%
X106550000Y-71877274D03*
%TD*%
D14*
%TO.N,+3V3*%
X120549293Y-70110707D03*
%TO.N,GND*%
X126495371Y-72407435D03*
X126300000Y-70287680D03*
D15*
X109000000Y-79050000D03*
D14*
X127778443Y-70922981D03*
X123637369Y-73774427D03*
X127763877Y-69630167D03*
X123633339Y-74777966D03*
X127972330Y-64455846D03*
X122323996Y-68519600D03*
X116000000Y-74000000D03*
X122333808Y-71487046D03*
D15*
X107500000Y-79050000D03*
D14*
X124700000Y-70287680D03*
X121494974Y-67944175D03*
X114500000Y-75500000D03*
X123544304Y-65839034D03*
X117500000Y-72500000D03*
X128541220Y-68069006D03*
D15*
X106550000Y-71310000D03*
D14*
X119000000Y-71000000D03*
X122254803Y-66103005D03*
D15*
X110500000Y-79050000D03*
X106000000Y-79050000D03*
D14*
X123540396Y-66851272D03*
%TO.N,+1V8*%
X122200000Y-67000000D03*
X106550000Y-73370000D03*
%TO.N,+5V*%
X127778443Y-71882981D03*
X125250000Y-72500000D03*
X125750122Y-68145335D03*
X127763877Y-68670167D03*
%TO.N,/PCIE_CLK_P*%
X120550000Y-66810000D03*
%TO.N,/PCIE_TX_N*%
X106550000Y-69490000D03*
%TO.N,/PCIE_CLK_N*%
X120550000Y-65710000D03*
%TO.N,/ENABLE_1V8*%
X123283996Y-68519600D03*
X124500000Y-68174768D03*
%TO.N,/PCIE_TX_P*%
X106550000Y-70400000D03*
%TO.N,/PCIE_DET_WAKE*%
X127972330Y-65475846D03*
%TO.N,/PCIE_RST_B*%
X122118556Y-63750000D03*
%TO.N,/PCIE_PWR_EN*%
X122250000Y-72750000D03*
X122254803Y-65083005D03*
X124574997Y-72500000D03*
%TO.N,/PCIE_CLKREQ_N*%
X122108755Y-62676787D03*
%TO.N,Net-(C4-Pad2)*%
X106550000Y-66760000D03*
%TO.N,Net-(C8-Pad2)*%
X106550000Y-67670000D03*
%TD*%
D16*
%TO.N,+3V3*%
X120550000Y-70111414D02*
X120549293Y-70110707D01*
X120550000Y-71110000D02*
X120550000Y-70111414D01*
%TO.N,GND*%
X106000000Y-80500000D02*
X106000000Y-79050000D01*
X106550000Y-71877274D02*
X106550000Y-71310000D01*
X110500000Y-80500000D02*
X110500000Y-79050000D01*
X109000000Y-80500000D02*
X109000000Y-79050000D01*
X107500000Y-80500000D02*
X107500000Y-79050000D01*
%TO.N,+1V8*%
X114250000Y-65250000D02*
X113765231Y-64765231D01*
X121556158Y-66813263D02*
X121556158Y-65514322D01*
X115750000Y-65250000D02*
X114250000Y-65250000D01*
X105353613Y-66219610D02*
X105353613Y-67996962D01*
X113765231Y-64765231D02*
X106807992Y-64765231D01*
X106066972Y-68710321D02*
X106960321Y-68710321D01*
X106960321Y-68710321D02*
X107433235Y-69183235D01*
X106520000Y-73340000D02*
X106550000Y-73370000D01*
X121556158Y-65514322D02*
X120807067Y-64765231D01*
X122200000Y-67000000D02*
X121742895Y-67000000D01*
X107433235Y-71954039D02*
X106550000Y-72837274D01*
X116234769Y-64765231D02*
X115750000Y-65250000D01*
X105353613Y-67996962D02*
X106066972Y-68710321D01*
X107433235Y-69183235D02*
X107433235Y-71954039D01*
X106807992Y-64765231D02*
X105353613Y-66219610D01*
X120807067Y-64765231D02*
X116234769Y-64765231D01*
X106550000Y-72837274D02*
X106550000Y-73370000D01*
X121742895Y-67000000D02*
X121556158Y-66813263D01*
%TO.N,+5V*%
X125750122Y-68145335D02*
X126274954Y-68670167D01*
D17*
X127484128Y-71588666D02*
X125750122Y-71588666D01*
X127778443Y-71882981D02*
X127778443Y-75997110D01*
X125250000Y-72088788D02*
X125250000Y-72500000D01*
X126783368Y-76992185D02*
X111962383Y-76992185D01*
X111472136Y-77482432D02*
X111472136Y-79500000D01*
X125750122Y-71588666D02*
X125250000Y-72088788D01*
X127778443Y-75997110D02*
X126783368Y-76992185D01*
X111962383Y-76992185D02*
X111472136Y-77482432D01*
X127778443Y-71882981D02*
X127484128Y-71588666D01*
D16*
X126274954Y-68670167D02*
X127763877Y-68670167D01*
D18*
%TO.N,/PCIE_CLK_P*%
X119271922Y-67750000D02*
X119271922Y-68193388D01*
X119033913Y-69015587D02*
X118852245Y-69197256D01*
X119271922Y-68193388D02*
X119033913Y-68431397D01*
X109887172Y-78073344D02*
X109886906Y-78073610D01*
X118268057Y-69197255D02*
X118086389Y-69378922D01*
X120164768Y-66424768D02*
X119455146Y-66424768D01*
X117577271Y-69888038D02*
X117538165Y-69927145D01*
X109887172Y-77580562D02*
X109887172Y-78073344D01*
X109886906Y-78073610D02*
X109886906Y-79378968D01*
X120550000Y-66810000D02*
X120164768Y-66424768D01*
X110000000Y-79492062D02*
X110000000Y-80500000D01*
X118086389Y-69378922D02*
X117577271Y-69888038D01*
X117538165Y-69927145D02*
X109885960Y-77579350D01*
X119455146Y-66424768D02*
X119271921Y-66607993D01*
X109886906Y-79378968D02*
X110000000Y-79492062D01*
X109885960Y-77579350D02*
X109887172Y-77580562D01*
X119271921Y-66607993D02*
X119271921Y-67749999D01*
X119271921Y-67749999D02*
X119271922Y-67750000D01*
X118852245Y-69197256D02*
G75*
G02*
X118560152Y-69197254I-146045J146056D01*
G01*
X119033912Y-68723493D02*
G75*
G02*
X119033873Y-69015546I-146012J-146007D01*
G01*
X118560151Y-69197255D02*
G75*
G03*
X118268057Y-69197255I-146047J-146046D01*
G01*
X119033913Y-68431397D02*
G75*
G03*
X119033957Y-68723448I146087J-146003D01*
G01*
%TO.N,/PCIE_TX_N*%
X105751404Y-74635960D02*
X107245526Y-74635960D01*
X105307128Y-70250594D02*
X105307128Y-74191684D01*
X108135960Y-72967708D02*
X108458872Y-72644796D01*
X106230960Y-69809040D02*
X105748682Y-69809040D01*
X109313025Y-72854731D02*
X109313025Y-74263458D01*
X106550000Y-69490000D02*
X106230960Y-69809040D01*
X105307128Y-74191684D02*
X105751404Y-74635960D01*
X109103090Y-72644796D02*
X109313025Y-72854731D01*
X106614040Y-79333416D02*
X106499999Y-79447457D01*
X106499999Y-79447457D02*
X106499999Y-79497065D01*
X106614040Y-76962443D02*
X106614040Y-79333416D01*
X106499999Y-79497065D02*
X106500000Y-79497066D01*
X108135960Y-73745526D02*
X108135960Y-72967708D01*
X106500000Y-79497066D02*
X106500000Y-80500000D01*
X108458872Y-72644796D02*
X109103090Y-72644796D01*
X109313025Y-74263458D02*
X106614040Y-76962443D01*
X107245526Y-74635960D02*
X108135960Y-73745526D01*
X105748682Y-69809040D02*
X105307128Y-70250594D01*
%TO.N,/PCIE_CLK_N*%
X119000000Y-66564656D02*
X119000000Y-66500000D01*
X119000000Y-67750000D02*
X119000001Y-67749999D01*
X119000000Y-66500000D02*
X119326959Y-66173041D01*
X119000001Y-66564657D02*
X119000000Y-66564656D01*
X119000000Y-68080754D02*
X119000000Y-67750000D01*
X119000001Y-67749999D02*
X119000001Y-66564657D01*
X109614040Y-79385960D02*
X109614040Y-77466714D01*
X109500000Y-79500000D02*
X109614040Y-79385960D01*
X120086959Y-66173041D02*
X120550000Y-65710000D01*
X119326959Y-66173041D02*
X120086959Y-66173041D01*
X109500000Y-80500000D02*
X109500000Y-79500000D01*
X109614040Y-77466714D02*
X119000000Y-68080754D01*
%TO.N,/PCIE_RX_P*%
X112556858Y-70733722D02*
X112556858Y-70933722D01*
X108385960Y-79376548D02*
X108500000Y-79490588D01*
X111599749Y-71933722D02*
X111599749Y-72790179D01*
X108500000Y-79490588D02*
X108500000Y-80500000D01*
X109213638Y-67073856D02*
X111599749Y-69459967D01*
X111599749Y-73992295D02*
X108385960Y-77206084D01*
X108650696Y-67073856D02*
X109213638Y-67073856D01*
X111599749Y-71733722D02*
X111599749Y-71933722D01*
X108225718Y-66648878D02*
X108650696Y-67073856D01*
X108500000Y-80500000D02*
X108500000Y-80384553D01*
X112020898Y-71469682D02*
X111863789Y-71469682D01*
X111863789Y-70197762D02*
X112020898Y-70197762D01*
X111599749Y-69459967D02*
X111599749Y-69933722D01*
X111599749Y-72790179D02*
X111599749Y-73992295D01*
X108385960Y-77206084D02*
X108385960Y-79376548D01*
X111863789Y-71469682D02*
G75*
G03*
X111599782Y-71733722I11J-264018D01*
G01*
X111599749Y-69933722D02*
G75*
G03*
X111863789Y-70197751I264051J22D01*
G01*
X112020898Y-70197762D02*
G75*
G02*
X112556838Y-70733722I2J-535938D01*
G01*
X112556858Y-70933722D02*
G75*
G02*
X112020898Y-71469658I-535958J22D01*
G01*
D19*
%TO.N,/ENABLE_1V8*%
X124500000Y-68174768D02*
X123628828Y-68174768D01*
X123628828Y-68174768D02*
X123283996Y-68519600D01*
D18*
%TO.N,/PCIE_TX_P*%
X106550000Y-70400000D02*
X106230960Y-70080960D01*
X107000000Y-79486566D02*
X107000000Y-80500000D01*
X107864040Y-73632890D02*
X107864040Y-72855072D01*
X109104112Y-74856926D02*
X108967158Y-74993881D01*
X106886897Y-77074142D02*
X106886897Y-79373463D01*
X109584945Y-73767449D02*
X109584945Y-74002095D01*
X109215726Y-72372876D02*
X109584945Y-72742095D01*
X105864040Y-74364040D02*
X107132890Y-74364040D01*
X105861318Y-70080960D02*
X105579048Y-70363230D01*
X109584945Y-74002095D02*
X109584945Y-74376094D01*
X105579048Y-70363230D02*
X105579048Y-74079048D01*
X107132890Y-74364040D02*
X107864040Y-73632890D01*
X109980299Y-73137449D02*
X109980299Y-73372095D01*
X108346236Y-72372876D02*
X108975131Y-72372876D01*
X106886897Y-79373463D02*
X107000000Y-79486566D01*
X108975131Y-72372876D02*
X109215726Y-72372876D01*
X106230960Y-70080960D02*
X105861318Y-70080960D01*
X107864040Y-72855072D02*
X108346236Y-72372876D01*
X105579048Y-74079048D02*
X105864040Y-74364040D01*
X109584945Y-74376094D02*
X109104112Y-74856926D01*
X108967158Y-74993881D02*
X106886897Y-77074142D01*
X109584945Y-72742095D02*
G75*
G03*
X109782622Y-72939755I197655J-5D01*
G01*
X109782622Y-72939772D02*
G75*
G02*
X109980228Y-73137449I-22J-197628D01*
G01*
X109782622Y-73569772D02*
G75*
G03*
X109584972Y-73767449I-22J-197628D01*
G01*
X109980299Y-73372095D02*
G75*
G02*
X109782622Y-73569799I-197699J-5D01*
G01*
%TO.N,/PCIE_RX_N*%
X112020898Y-71197762D02*
X111863789Y-71197762D01*
X108114040Y-77114838D02*
X108114040Y-79397075D01*
X108230000Y-67766472D02*
X108650696Y-67345776D01*
X111863789Y-70469682D02*
X112020898Y-70469682D01*
X108114040Y-79397075D02*
X108000000Y-79511115D01*
X111327829Y-71933722D02*
X111327829Y-72790179D01*
X112284938Y-70733722D02*
X112284938Y-70933722D01*
X108000000Y-79511115D02*
X108000000Y-80500000D01*
X110184472Y-68429245D02*
X110282709Y-68527483D01*
X110377613Y-68622387D02*
X111327829Y-69572603D01*
X109377613Y-68331009D02*
X109475849Y-68429245D01*
X108650696Y-67345776D02*
X109101002Y-67345776D01*
X109101002Y-67345776D02*
X109377613Y-67622387D01*
X111327829Y-71733722D02*
X111327829Y-71933722D01*
X111327829Y-69572603D02*
X111327829Y-69933722D01*
X111327829Y-73901049D02*
X108114040Y-77114838D01*
X110282709Y-68527483D02*
X110377613Y-68622387D01*
X111327829Y-72790179D02*
X111327829Y-73901049D01*
X112284938Y-70933722D02*
G75*
G02*
X112020898Y-71197738I-264038J22D01*
G01*
X109377613Y-67976698D02*
G75*
G03*
X109377566Y-68331055I177187J-177202D01*
G01*
X111863789Y-71197762D02*
G75*
G03*
X111327862Y-71733722I11J-535938D01*
G01*
X109475849Y-68429245D02*
G75*
G03*
X109830161Y-68429245I177156J177157D01*
G01*
X111327829Y-69933722D02*
G75*
G03*
X111863789Y-70469671I535971J22D01*
G01*
X112020898Y-70469682D02*
G75*
G02*
X112284918Y-70733722I2J-264018D01*
G01*
X109830161Y-68429245D02*
G75*
G02*
X110184472Y-68429244I177156J-177156D01*
G01*
X109377613Y-67622387D02*
G75*
G02*
X109377571Y-67976655I-177113J-177113D01*
G01*
D19*
%TO.N,/PCIE_DET_WAKE*%
X120931398Y-63456187D02*
X106166041Y-63456187D01*
X121828497Y-64353286D02*
X120931398Y-63456187D01*
X106166041Y-63456187D02*
X104320500Y-65301728D01*
X104320500Y-65301728D02*
X104320500Y-75748060D01*
X105000000Y-76427559D02*
X105000000Y-80500000D01*
X127972330Y-65475846D02*
X126849770Y-64353286D01*
X126849770Y-64353286D02*
X121828497Y-64353286D01*
X104320500Y-75748060D02*
X105000000Y-76427559D01*
%TO.N,/PCIE_RST_B*%
X103864500Y-76364500D02*
X104000000Y-76500000D01*
X103864500Y-63635500D02*
X103864500Y-76364500D01*
X122118556Y-63750000D02*
X122632879Y-63235677D01*
X122439059Y-62114500D02*
X105385500Y-62114500D01*
X104000000Y-76500000D02*
X104000000Y-80500000D01*
X122632879Y-62308320D02*
X122439059Y-62114500D01*
X122632879Y-63235677D02*
X122632879Y-62308320D01*
X105385500Y-62114500D02*
X103864500Y-63635500D01*
D16*
%TO.N,/PCIE_PWR_EN*%
X123500000Y-72750000D02*
X123750000Y-72500000D01*
D19*
X104548500Y-66138486D02*
X104548500Y-75421002D01*
X121857505Y-65083005D02*
X120872693Y-64098193D01*
D16*
X122250000Y-72750000D02*
X123500000Y-72750000D01*
D19*
X106588793Y-64098193D02*
X104548500Y-66138486D01*
D16*
X123750000Y-72500000D02*
X124574997Y-72500000D01*
D19*
X120872693Y-64098193D02*
X106588793Y-64098193D01*
X122254803Y-65083005D02*
X121857505Y-65083005D01*
X104548500Y-75421002D02*
X105500000Y-76372502D01*
X105500000Y-76372502D02*
X105500000Y-80500000D01*
%TO.N,/PCIE_CLKREQ_N*%
X104500000Y-76460319D02*
X104092500Y-76052819D01*
X104092500Y-64461238D02*
X105788852Y-62764886D01*
X105788852Y-62764886D02*
X122020656Y-62764886D01*
X104092500Y-76052819D02*
X104092500Y-64461238D01*
X104500000Y-80500000D02*
X104500000Y-76460319D01*
X122020656Y-62764886D02*
X122108755Y-62676787D01*
D16*
%TO.N,Net-(C4-Pad2)*%
X106661122Y-66648878D02*
X106550000Y-66760000D01*
D19*
X106550000Y-66760000D02*
X107154596Y-66760000D01*
X107154596Y-66760000D02*
X107265718Y-66648878D01*
X106661122Y-66871122D02*
X106661122Y-66648878D01*
%TO.N,Net-(C8-Pad2)*%
X107173528Y-67670000D02*
X107270000Y-67766472D01*
X106550000Y-67670000D02*
X107173528Y-67670000D01*
%TD*%
%TA.AperFunction,Conductor*%
%TO.N,GND*%
G36*
X129202396Y-62050736D02*
G01*
X129331672Y-62063468D01*
X129341075Y-62065339D01*
X129463072Y-62102346D01*
X129471939Y-62106018D01*
X129523235Y-62133437D01*
X129584364Y-62166112D01*
X129592350Y-62171449D01*
X129690889Y-62252318D01*
X129697681Y-62259110D01*
X129778550Y-62357649D01*
X129783887Y-62365635D01*
X129843979Y-62478057D01*
X129847655Y-62486932D01*
X129884658Y-62608915D01*
X129886532Y-62618336D01*
X129899264Y-62747603D01*
X129899500Y-62752406D01*
X129899500Y-76497593D01*
X129899264Y-76502396D01*
X129886532Y-76631663D01*
X129884658Y-76641084D01*
X129847655Y-76763067D01*
X129843979Y-76771942D01*
X129783887Y-76884364D01*
X129778550Y-76892350D01*
X129697681Y-76990889D01*
X129690889Y-76997681D01*
X129592350Y-77078550D01*
X129584364Y-77083887D01*
X129471942Y-77143979D01*
X129463067Y-77147655D01*
X129341084Y-77184658D01*
X129331663Y-77186532D01*
X129202396Y-77199264D01*
X129197593Y-77199500D01*
X127331452Y-77199500D01*
X127296804Y-77185148D01*
X127282452Y-77150500D01*
X127296804Y-77115852D01*
X127649589Y-76763067D01*
X128138933Y-76273723D01*
X128198242Y-76170996D01*
X128213632Y-76113559D01*
X128228943Y-76056419D01*
X128228943Y-72472988D01*
X128231704Y-72456771D01*
X128232833Y-72453555D01*
X128299571Y-71983465D01*
X128299345Y-71977911D01*
X128300975Y-71963239D01*
X128303943Y-71952164D01*
X128303943Y-71813795D01*
X128303942Y-71813794D01*
X128282963Y-71735500D01*
X128268131Y-71680145D01*
X128268130Y-71680144D01*
X128268130Y-71680142D01*
X128198947Y-71560315D01*
X128101108Y-71462476D01*
X128044370Y-71429718D01*
X128042132Y-71428426D01*
X128025901Y-71416623D01*
X128004896Y-71406928D01*
X127981279Y-71393293D01*
X127981275Y-71393291D01*
X127971198Y-71390591D01*
X127963347Y-71387751D01*
X127891365Y-71354528D01*
X127877251Y-71344686D01*
X127760742Y-71228177D01*
X127658016Y-71168867D01*
X127658014Y-71168866D01*
X127633801Y-71162379D01*
X127603679Y-71154308D01*
X127543439Y-71138166D01*
X127543437Y-71138166D01*
X125690813Y-71138166D01*
X125690810Y-71138166D01*
X125576237Y-71168866D01*
X125576234Y-71168867D01*
X125544730Y-71187057D01*
X125473507Y-71228177D01*
X125473507Y-71228178D01*
X124889512Y-71812173D01*
X124889511Y-71812173D01*
X124830201Y-71914899D01*
X124830201Y-71914902D01*
X124815521Y-71969683D01*
X124792690Y-71999436D01*
X124755509Y-72004330D01*
X124755508Y-72004329D01*
X124755508Y-72004330D01*
X124755507Y-72004329D01*
X124644183Y-71974500D01*
X124644180Y-71974500D01*
X124505814Y-71974500D01*
X124505811Y-71974500D01*
X124450582Y-71989298D01*
X124447599Y-71990096D01*
X124425254Y-71993165D01*
X124387664Y-72006155D01*
X124385982Y-72006606D01*
X124385962Y-72006613D01*
X124372162Y-72010311D01*
X124372161Y-72010311D01*
X124371030Y-72010965D01*
X124362542Y-72014838D01*
X123980682Y-72146812D01*
X123964676Y-72149500D01*
X123703853Y-72149500D01*
X123614713Y-72173385D01*
X123614710Y-72173386D01*
X123534794Y-72219527D01*
X123534783Y-72219534D01*
X123369170Y-72385148D01*
X123334522Y-72399500D01*
X122860319Y-72399500D01*
X122844313Y-72396812D01*
X122462457Y-72264838D01*
X122462457Y-72264839D01*
X122458024Y-72263307D01*
X122452836Y-72260312D01*
X122437353Y-72256163D01*
X122416129Y-72248828D01*
X122399747Y-72243166D01*
X122397767Y-72242554D01*
X122383477Y-72238143D01*
X122383218Y-72238072D01*
X122381971Y-72237732D01*
X122365515Y-72233827D01*
X122365509Y-72233826D01*
X122360197Y-72233808D01*
X122347689Y-72232138D01*
X122319185Y-72224500D01*
X122319183Y-72224500D01*
X122180817Y-72224500D01*
X122180814Y-72224500D01*
X122047165Y-72260311D01*
X122047161Y-72260312D01*
X121927334Y-72329495D01*
X121927334Y-72329496D01*
X121829496Y-72427334D01*
X121829495Y-72427334D01*
X121760312Y-72547161D01*
X121760311Y-72547165D01*
X121724500Y-72680813D01*
X121724500Y-72819186D01*
X121760311Y-72952834D01*
X121760312Y-72952838D01*
X121827561Y-73069316D01*
X121829495Y-73072665D01*
X121927335Y-73170505D01*
X121971194Y-73195827D01*
X122047161Y-73239687D01*
X122047163Y-73239687D01*
X122047164Y-73239688D01*
X122125575Y-73260698D01*
X122180813Y-73275499D01*
X122180814Y-73275500D01*
X122180817Y-73275500D01*
X122319185Y-73275500D01*
X122359768Y-73264624D01*
X122374422Y-73260698D01*
X122377397Y-73259900D01*
X122399743Y-73256834D01*
X122437335Y-73243840D01*
X122439022Y-73243389D01*
X122439025Y-73243388D01*
X122452829Y-73239690D01*
X122452829Y-73239689D01*
X122452836Y-73239688D01*
X122453969Y-73239033D01*
X122462448Y-73235162D01*
X122844310Y-73103187D01*
X122860316Y-73100500D01*
X123546146Y-73100500D01*
X123600698Y-73085882D01*
X123635288Y-73076614D01*
X123647927Y-73069317D01*
X123715212Y-73030470D01*
X123880829Y-72864851D01*
X123915477Y-72850500D01*
X123964680Y-72850500D01*
X123980685Y-72853187D01*
X124362544Y-72985160D01*
X124371025Y-72989032D01*
X124372161Y-72989688D01*
X124385984Y-72993391D01*
X124389276Y-72994399D01*
X124425253Y-73006834D01*
X124441458Y-73011839D01*
X124442957Y-73012248D01*
X124442969Y-73012251D01*
X124442977Y-73012253D01*
X124448328Y-73013523D01*
X124459486Y-73016172D01*
X124464791Y-73016190D01*
X124477303Y-73017859D01*
X124505814Y-73025500D01*
X124505815Y-73025500D01*
X124644183Y-73025500D01*
X124644183Y-73025499D01*
X124777833Y-72989688D01*
X124887999Y-72926083D01*
X124925180Y-72921189D01*
X124936998Y-72926084D01*
X125047161Y-72989687D01*
X125047163Y-72989687D01*
X125047164Y-72989688D01*
X125146004Y-73016172D01*
X125180813Y-73025499D01*
X125180814Y-73025500D01*
X125180817Y-73025500D01*
X125319186Y-73025500D01*
X125319186Y-73025499D01*
X125452836Y-72989688D01*
X125572665Y-72920505D01*
X125670505Y-72822665D01*
X125739688Y-72702836D01*
X125775499Y-72569186D01*
X125775500Y-72569186D01*
X125775500Y-72430815D01*
X125774006Y-72425241D01*
X125772711Y-72410404D01*
X125772573Y-72410406D01*
X125772553Y-72408598D01*
X125772524Y-72408256D01*
X125772547Y-72407995D01*
X125754956Y-72246832D01*
X125765464Y-72210834D01*
X125769009Y-72206880D01*
X125922373Y-72053518D01*
X125957021Y-72039166D01*
X127203711Y-72039166D01*
X127206569Y-72040350D01*
X127209549Y-72039515D01*
X127223536Y-72047378D01*
X127238359Y-72053518D01*
X127242241Y-72057893D01*
X127265400Y-72087368D01*
X127275383Y-72110753D01*
X127324051Y-72453549D01*
X127324051Y-72453550D01*
X127324053Y-72453555D01*
X127325723Y-72458914D01*
X127327943Y-72473494D01*
X127327943Y-75790211D01*
X127313591Y-75824859D01*
X126611117Y-76527333D01*
X126576469Y-76541685D01*
X112826611Y-76541685D01*
X112791963Y-76527333D01*
X112777611Y-76492685D01*
X112791963Y-76458037D01*
X118201606Y-71048394D01*
X119924500Y-71048394D01*
X119924500Y-71171606D01*
X119935753Y-71228178D01*
X119948536Y-71292449D01*
X119948539Y-71292459D01*
X119995686Y-71406280D01*
X119995687Y-71406282D01*
X119995689Y-71406286D01*
X120064142Y-71508733D01*
X120151267Y-71595858D01*
X120253714Y-71664311D01*
X120253719Y-71664313D01*
X120367540Y-71711460D01*
X120367542Y-71711460D01*
X120367548Y-71711463D01*
X120488394Y-71735500D01*
X120488397Y-71735500D01*
X120611603Y-71735500D01*
X120611606Y-71735500D01*
X120732452Y-71711463D01*
X120846286Y-71664311D01*
X120948733Y-71595858D01*
X121035858Y-71508733D01*
X121104311Y-71406286D01*
X121151463Y-71292452D01*
X121175500Y-71171606D01*
X121175500Y-71048394D01*
X121151463Y-70927548D01*
X121104311Y-70813714D01*
X121104308Y-70813710D01*
X121103306Y-70811834D01*
X121101024Y-70806932D01*
X120982582Y-70510760D01*
X120981746Y-70476620D01*
X121036235Y-70318297D01*
X121038981Y-70313543D01*
X121042878Y-70298997D01*
X121056256Y-70260128D01*
X121061203Y-70244052D01*
X121061607Y-70242567D01*
X121065482Y-70226220D01*
X121065500Y-70220845D01*
X121067169Y-70208341D01*
X121074793Y-70179890D01*
X121074793Y-70041524D01*
X121074793Y-70041521D01*
X121074792Y-70041520D01*
X121038981Y-69907872D01*
X121038980Y-69907868D01*
X120969797Y-69788041D01*
X120871958Y-69690202D01*
X120752131Y-69621019D01*
X120752127Y-69621018D01*
X120618479Y-69585207D01*
X120618476Y-69585207D01*
X120480110Y-69585207D01*
X120480107Y-69585207D01*
X120346458Y-69621018D01*
X120346454Y-69621019D01*
X120226627Y-69690202D01*
X120226627Y-69690203D01*
X120128789Y-69788041D01*
X120128788Y-69788041D01*
X120059605Y-69907868D01*
X120059604Y-69907872D01*
X120023793Y-70041520D01*
X120023793Y-70179893D01*
X120038717Y-70235591D01*
X120039506Y-70238534D01*
X120042588Y-70260770D01*
X120055205Y-70297128D01*
X120055665Y-70298844D01*
X120055666Y-70298846D01*
X120059605Y-70313543D01*
X120060530Y-70315146D01*
X120064384Y-70323576D01*
X120117806Y-70477510D01*
X120117011Y-70511770D01*
X119998970Y-70806940D01*
X119996696Y-70811827D01*
X119995691Y-70813707D01*
X119948536Y-70927549D01*
X119948535Y-70927553D01*
X119946355Y-70938513D01*
X119944581Y-70945039D01*
X119942512Y-70950991D01*
X119942508Y-70951003D01*
X119941913Y-70953005D01*
X119941908Y-70953024D01*
X119936355Y-70975326D01*
X119936331Y-70984213D01*
X119935437Y-70993167D01*
X119935460Y-70993279D01*
X119935398Y-70993603D01*
X119924500Y-71048394D01*
X118201606Y-71048394D01*
X120799587Y-68450413D01*
X122758496Y-68450413D01*
X122758496Y-68588786D01*
X122794307Y-68722434D01*
X122794308Y-68722438D01*
X122847933Y-68815318D01*
X122863491Y-68842265D01*
X122961331Y-68940105D01*
X122979568Y-68950634D01*
X123081157Y-69009287D01*
X123081159Y-69009287D01*
X123081160Y-69009288D01*
X123186567Y-69037531D01*
X123214809Y-69045099D01*
X123214810Y-69045100D01*
X123214813Y-69045100D01*
X123353182Y-69045100D01*
X123353182Y-69045099D01*
X123486832Y-69009288D01*
X123606661Y-68940105D01*
X123704501Y-68842265D01*
X123773684Y-68722436D01*
X123786134Y-68675968D01*
X123792265Y-68662131D01*
X123794964Y-68657941D01*
X123847596Y-68524541D01*
X123873663Y-68497579D01*
X123911161Y-68496945D01*
X123912144Y-68497346D01*
X124129136Y-68588783D01*
X124239123Y-68635130D01*
X124239130Y-68635132D01*
X124245631Y-68636797D01*
X124257976Y-68641830D01*
X124297164Y-68664456D01*
X124340169Y-68675979D01*
X124430813Y-68700267D01*
X124430814Y-68700268D01*
X124430817Y-68700268D01*
X124569186Y-68700268D01*
X124569186Y-68700267D01*
X124702836Y-68664456D01*
X124822665Y-68595273D01*
X124920505Y-68497433D01*
X124989688Y-68377604D01*
X125025499Y-68243954D01*
X125025500Y-68243954D01*
X125025500Y-68105582D01*
X125025499Y-68105581D01*
X125020152Y-68085622D01*
X125017613Y-68076148D01*
X125224622Y-68076148D01*
X125224622Y-68214521D01*
X125260433Y-68348169D01*
X125260434Y-68348173D01*
X125297607Y-68412557D01*
X125329617Y-68468000D01*
X125427457Y-68565840D01*
X125479655Y-68595976D01*
X125497619Y-68609604D01*
X125533389Y-68626999D01*
X125541737Y-68631819D01*
X125547283Y-68635022D01*
X125547285Y-68635022D01*
X125547286Y-68635023D01*
X125548547Y-68635360D01*
X125557293Y-68638625D01*
X125920623Y-68815318D01*
X125933840Y-68824735D01*
X126059742Y-68950637D01*
X126129040Y-68990646D01*
X126129041Y-68990647D01*
X126139663Y-68996780D01*
X126139669Y-68996782D01*
X126228806Y-69020666D01*
X126228807Y-69020667D01*
X126228810Y-69020667D01*
X126228811Y-69020667D01*
X126321098Y-69020667D01*
X127153560Y-69020667D01*
X127169565Y-69023354D01*
X127555849Y-69156857D01*
X127561041Y-69159855D01*
X127576531Y-69164005D01*
X127614133Y-69177001D01*
X127630338Y-69182006D01*
X127631837Y-69182415D01*
X127631849Y-69182418D01*
X127631857Y-69182420D01*
X127637208Y-69183690D01*
X127648366Y-69186339D01*
X127653671Y-69186357D01*
X127666183Y-69188026D01*
X127694694Y-69195667D01*
X127694695Y-69195667D01*
X127833063Y-69195667D01*
X127833063Y-69195666D01*
X127966713Y-69159855D01*
X128086542Y-69090672D01*
X128184382Y-68992832D01*
X128253565Y-68873003D01*
X128289376Y-68739353D01*
X128289377Y-68739353D01*
X128289377Y-68600981D01*
X128289376Y-68600980D01*
X128279959Y-68565837D01*
X128253565Y-68467331D01*
X128253564Y-68467330D01*
X128253564Y-68467328D01*
X128184381Y-68347501D01*
X128086542Y-68249662D01*
X127966715Y-68180479D01*
X127966711Y-68180478D01*
X127833063Y-68144667D01*
X127833060Y-68144667D01*
X127694694Y-68144667D01*
X127694691Y-68144667D01*
X127639462Y-68159465D01*
X127636479Y-68160263D01*
X127614134Y-68163332D01*
X127576544Y-68176322D01*
X127574862Y-68176773D01*
X127574842Y-68176780D01*
X127561042Y-68180478D01*
X127561041Y-68180478D01*
X127559910Y-68181132D01*
X127551422Y-68185005D01*
X127266672Y-68283416D01*
X127170193Y-68316761D01*
X127169562Y-68316979D01*
X127153556Y-68319667D01*
X126452626Y-68319667D01*
X126417978Y-68305315D01*
X126408561Y-68292097D01*
X126385147Y-68243951D01*
X126241362Y-67948291D01*
X126239810Y-67942499D01*
X126231786Y-67928602D01*
X126214391Y-67892832D01*
X126206406Y-67877721D01*
X126206397Y-67877706D01*
X126206389Y-67877690D01*
X126205642Y-67876383D01*
X126201617Y-67869857D01*
X126196800Y-67862042D01*
X126193057Y-67858272D01*
X126185393Y-67848247D01*
X126170631Y-67822676D01*
X126170628Y-67822673D01*
X126170627Y-67822670D01*
X126072787Y-67724830D01*
X126043855Y-67708126D01*
X125952960Y-67655647D01*
X125952956Y-67655646D01*
X125819308Y-67619835D01*
X125819305Y-67619835D01*
X125680939Y-67619835D01*
X125680936Y-67619835D01*
X125547287Y-67655646D01*
X125547283Y-67655647D01*
X125427456Y-67724830D01*
X125427456Y-67724831D01*
X125329618Y-67822669D01*
X125329617Y-67822669D01*
X125260434Y-67942496D01*
X125260433Y-67942500D01*
X125224622Y-68076148D01*
X125017613Y-68076148D01*
X124989688Y-67971933D01*
X124989687Y-67971929D01*
X124935295Y-67877721D01*
X124920505Y-67852103D01*
X124822665Y-67754263D01*
X124702838Y-67685080D01*
X124702834Y-67685079D01*
X124569186Y-67649268D01*
X124569183Y-67649268D01*
X124430817Y-67649268D01*
X124430814Y-67649268D01*
X124297168Y-67685078D01*
X124297160Y-67685081D01*
X124257243Y-67708126D01*
X124242608Y-67713687D01*
X124239135Y-67714400D01*
X124239126Y-67714403D01*
X123900908Y-67856923D01*
X123881881Y-67860768D01*
X123587487Y-67860768D01*
X123533654Y-67875193D01*
X123533651Y-67875194D01*
X123529252Y-67876373D01*
X123507628Y-67882167D01*
X123451272Y-67914702D01*
X123449580Y-67915514D01*
X123448764Y-67915558D01*
X123442656Y-67918210D01*
X123166060Y-68002377D01*
X123150194Y-68010358D01*
X123140859Y-68013914D01*
X123081161Y-68029911D01*
X123081157Y-68029912D01*
X122961330Y-68099095D01*
X122961330Y-68099096D01*
X122863492Y-68196934D01*
X122863491Y-68196934D01*
X122794308Y-68316761D01*
X122794307Y-68316765D01*
X122758496Y-68450413D01*
X120799587Y-68450413D01*
X120837443Y-68412557D01*
X120957903Y-68292097D01*
X121150000Y-68100000D01*
X121150000Y-66993646D01*
X121164352Y-66958998D01*
X121199000Y-66944646D01*
X121233648Y-66958998D01*
X121241432Y-66969143D01*
X121275688Y-67028475D01*
X121527683Y-67280470D01*
X121596981Y-67320479D01*
X121596982Y-67320480D01*
X121607604Y-67326613D01*
X121607610Y-67326615D01*
X121696747Y-67350499D01*
X121696748Y-67350500D01*
X121696751Y-67350500D01*
X121709320Y-67350500D01*
X121731346Y-67355729D01*
X121923161Y-67452252D01*
X121937801Y-67456804D01*
X121947748Y-67461158D01*
X121997164Y-67489688D01*
X121997168Y-67489689D01*
X122130813Y-67525499D01*
X122130814Y-67525500D01*
X122130817Y-67525500D01*
X122269186Y-67525500D01*
X122269186Y-67525499D01*
X122402836Y-67489688D01*
X122402840Y-67489686D01*
X122418891Y-67480418D01*
X122522665Y-67420505D01*
X122620505Y-67322665D01*
X122689688Y-67202836D01*
X122725499Y-67069186D01*
X122725500Y-67069186D01*
X122725500Y-66930814D01*
X122725499Y-66930813D01*
X122689688Y-66797165D01*
X122689687Y-66797161D01*
X122620504Y-66677334D01*
X122522665Y-66579495D01*
X122402838Y-66510312D01*
X122402834Y-66510311D01*
X122269186Y-66474500D01*
X122269183Y-66474500D01*
X122130817Y-66474500D01*
X122130816Y-66474500D01*
X122075014Y-66489451D01*
X122075013Y-66489450D01*
X122072068Y-66490238D01*
X122049873Y-66493319D01*
X122013682Y-66505885D01*
X122011964Y-66506346D01*
X121997164Y-66510312D01*
X121997160Y-66510313D01*
X121995502Y-66511271D01*
X121987075Y-66515124D01*
X121971730Y-66520452D01*
X121934291Y-66518259D01*
X121909369Y-66490235D01*
X121906658Y-66474163D01*
X121906658Y-65573669D01*
X121921010Y-65539021D01*
X121955658Y-65524669D01*
X121980158Y-65531234D01*
X122051964Y-65572692D01*
X122051966Y-65572692D01*
X122051967Y-65572693D01*
X122055610Y-65573669D01*
X122185616Y-65608504D01*
X122185617Y-65608505D01*
X122185620Y-65608505D01*
X122323989Y-65608505D01*
X122323989Y-65608504D01*
X122457639Y-65572693D01*
X122577468Y-65503510D01*
X122675308Y-65405670D01*
X122744491Y-65285841D01*
X122780302Y-65152191D01*
X122780303Y-65152191D01*
X122780303Y-65013819D01*
X122780302Y-65013818D01*
X122744491Y-64880170D01*
X122744490Y-64880166D01*
X122675307Y-64760339D01*
X122665902Y-64750934D01*
X122651550Y-64716286D01*
X122665902Y-64681638D01*
X122700550Y-64667286D01*
X126699411Y-64667286D01*
X126734059Y-64681638D01*
X127313222Y-65260801D01*
X127323958Y-65276974D01*
X127462336Y-65616902D01*
X127462344Y-65616918D01*
X127465763Y-65622693D01*
X127470929Y-65634973D01*
X127482641Y-65678680D01*
X127482642Y-65678684D01*
X127551825Y-65798511D01*
X127649665Y-65896351D01*
X127693524Y-65921673D01*
X127769491Y-65965533D01*
X127769493Y-65965533D01*
X127769494Y-65965534D01*
X127874901Y-65993777D01*
X127903143Y-66001345D01*
X127903144Y-66001346D01*
X127903147Y-66001346D01*
X128041516Y-66001346D01*
X128041516Y-66001345D01*
X128175166Y-65965534D01*
X128294995Y-65896351D01*
X128392835Y-65798511D01*
X128462018Y-65678682D01*
X128497829Y-65545032D01*
X128497830Y-65545032D01*
X128497830Y-65406660D01*
X128497829Y-65406659D01*
X128490261Y-65378417D01*
X128462018Y-65273010D01*
X128462017Y-65273009D01*
X128462017Y-65273007D01*
X128392834Y-65153180D01*
X128294995Y-65055341D01*
X128175168Y-64986158D01*
X128175164Y-64986157D01*
X128130640Y-64974227D01*
X128116351Y-64967806D01*
X128113391Y-64965854D01*
X127773457Y-64827473D01*
X127757284Y-64816737D01*
X127042570Y-64102023D01*
X126970971Y-64060685D01*
X126965538Y-64059229D01*
X126950693Y-64055252D01*
X126891111Y-64039286D01*
X126891109Y-64039286D01*
X122643203Y-64039286D01*
X122608555Y-64024934D01*
X122594203Y-63990286D01*
X122596964Y-63974070D01*
X122598479Y-63969748D01*
X122608244Y-63952836D01*
X122620656Y-63906512D01*
X122621265Y-63904776D01*
X122622262Y-63903660D01*
X122626595Y-63894019D01*
X122628547Y-63891061D01*
X122766927Y-63551126D01*
X122777657Y-63534960D01*
X122884142Y-63428477D01*
X122925480Y-63356876D01*
X122946879Y-63277016D01*
X122946879Y-63194338D01*
X122946879Y-62266981D01*
X122946879Y-62266979D01*
X122925480Y-62187122D01*
X122925479Y-62187118D01*
X122914664Y-62168387D01*
X122914663Y-62168386D01*
X122913350Y-62166112D01*
X122889036Y-62123998D01*
X122884143Y-62086817D01*
X122906974Y-62057064D01*
X122906979Y-62057063D01*
X122931473Y-62050500D01*
X129152405Y-62050500D01*
X129197593Y-62050500D01*
X129202396Y-62050736D01*
G37*
%TD.AperFunction*%
%TD*%
%TA.AperFunction,Conductor*%
%TO.N,+5V*%
G36*
X111660648Y-79021270D02*
G01*
X111675000Y-79055918D01*
X111675000Y-79951000D01*
X111660648Y-79985648D01*
X111626000Y-80000000D01*
X110924500Y-80000000D01*
X110889852Y-79985648D01*
X110875500Y-79951000D01*
X110875500Y-79854000D01*
X110889852Y-79819352D01*
X110924500Y-79805000D01*
X110972638Y-79805000D01*
X111011643Y-79797240D01*
X111070407Y-79785552D01*
X111070411Y-79785550D01*
X111070414Y-79785550D01*
X111105062Y-79771198D01*
X111187948Y-79715815D01*
X111243334Y-79632926D01*
X111257025Y-79599872D01*
X111257483Y-79598869D01*
X111257679Y-79598293D01*
X111257686Y-79598278D01*
X111257687Y-79598276D01*
X111277136Y-79500500D01*
X111277136Y-79055918D01*
X111291488Y-79021270D01*
X111326136Y-79006918D01*
X111626000Y-79006918D01*
X111660648Y-79021270D01*
G37*
%TD.AperFunction*%
%TD*%
%TA.AperFunction,Conductor*%
%TO.N,+3V3*%
G36*
X120650351Y-70370633D02*
G01*
X120652942Y-70374562D01*
X120912580Y-71023803D01*
X120912470Y-71032757D01*
X120906060Y-71039011D01*
X120904029Y-71039616D01*
X120552313Y-71110533D01*
X120547687Y-71110533D01*
X120195970Y-71039616D01*
X120188538Y-71034622D01*
X120186814Y-71025834D01*
X120187415Y-71023813D01*
X120447058Y-70374561D01*
X120453312Y-70368152D01*
X120457922Y-70367206D01*
X120642078Y-70367206D01*
X120650351Y-70370633D01*
G37*
%TD.AperFunction*%
%TD*%
%TA.AperFunction,Conductor*%
%TO.N,+3V3*%
G36*
X120805925Y-70161706D02*
G01*
X120813352Y-70166707D01*
X120815068Y-70175495D01*
X120814664Y-70176980D01*
X120652716Y-70647531D01*
X120646783Y-70654238D01*
X120641653Y-70655423D01*
X120458324Y-70655423D01*
X120450051Y-70651996D01*
X120447271Y-70647559D01*
X120283965Y-70177001D01*
X120284490Y-70168062D01*
X120291182Y-70162112D01*
X120292680Y-70161701D01*
X120546973Y-70110177D01*
X120551613Y-70110177D01*
X120805925Y-70161706D01*
G37*
%TD.AperFunction*%
%TD*%
%TA.AperFunction,Conductor*%
%TO.N,GND*%
G36*
X106294236Y-79108527D02*
G01*
X106100000Y-79644236D01*
X105900000Y-79644236D01*
X105705764Y-79108527D01*
X106000000Y-79049000D01*
X106294236Y-79108527D01*
G37*
%TD.AperFunction*%
%TD*%
%TA.AperFunction,Conductor*%
%TO.N,GND*%
G36*
X106844236Y-71368527D02*
G01*
X106650000Y-71877274D01*
X106450000Y-71877274D01*
X106255764Y-71368527D01*
X106550000Y-71309000D01*
X106844236Y-71368527D01*
G37*
%TD.AperFunction*%
%TD*%
%TA.AperFunction,Conductor*%
%TO.N,GND*%
G36*
X110794236Y-79108527D02*
G01*
X110600000Y-79644236D01*
X110400000Y-79644236D01*
X110205764Y-79108527D01*
X110500000Y-79049000D01*
X110794236Y-79108527D01*
G37*
%TD.AperFunction*%
%TD*%
%TA.AperFunction,Conductor*%
%TO.N,GND*%
G36*
X109294236Y-79108527D02*
G01*
X109100000Y-79644236D01*
X108900000Y-79644236D01*
X108705764Y-79108527D01*
X109000000Y-79049000D01*
X109294236Y-79108527D01*
G37*
%TD.AperFunction*%
%TD*%
%TA.AperFunction,Conductor*%
%TO.N,GND*%
G36*
X107794236Y-79108527D02*
G01*
X107600000Y-79644236D01*
X107400000Y-79644236D01*
X107205764Y-79108527D01*
X107500000Y-79049000D01*
X107794236Y-79108527D01*
G37*
%TD.AperFunction*%
%TD*%
%TA.AperFunction,Conductor*%
%TO.N,+1V8*%
G36*
X115006128Y-65163384D02*
G01*
X115007206Y-65168289D01*
X115007206Y-65337432D01*
X115003779Y-65345705D01*
X114995506Y-65349132D01*
X114994671Y-65349102D01*
X114677527Y-65326402D01*
X114669519Y-65322393D01*
X114666692Y-65313897D01*
X114670701Y-65305889D01*
X114673451Y-65304113D01*
X114990602Y-65157666D01*
X114999549Y-65157310D01*
X115006128Y-65163384D01*
G37*
%TD.AperFunction*%
%TD*%
%TA.AperFunction,Conductor*%
%TO.N,+1V8*%
G36*
X122142623Y-66735206D02*
G01*
X122148574Y-66741897D01*
X122148992Y-66743429D01*
X122199744Y-66995918D01*
X122198014Y-67004705D01*
X122197978Y-67004759D01*
X122052974Y-67220104D01*
X122045511Y-67225052D01*
X122038010Y-67224020D01*
X121624695Y-67016036D01*
X121618845Y-67009256D01*
X121619503Y-67000326D01*
X121621678Y-66997315D01*
X121749757Y-66869236D01*
X121754187Y-66866459D01*
X122133684Y-66734682D01*
X122142623Y-66735206D01*
G37*
%TD.AperFunction*%
%TD*%
%TA.AperFunction,Conductor*%
%TO.N,+1V8*%
G36*
X106934177Y-72323450D02*
G01*
X107063991Y-72453264D01*
X107067418Y-72461537D01*
X107066381Y-72466353D01*
X106864116Y-72914140D01*
X106857587Y-72920269D01*
X106850356Y-72920607D01*
X106554835Y-72839502D01*
X106547764Y-72834008D01*
X106547109Y-72832663D01*
X106438198Y-72567446D01*
X106438225Y-72558492D01*
X106443913Y-72552476D01*
X106920799Y-72321195D01*
X106929738Y-72320669D01*
X106934177Y-72323450D01*
G37*
%TD.AperFunction*%
%TD*%
%TA.AperFunction,Conductor*%
%TO.N,+1V8*%
G36*
X106557753Y-72844239D02*
G01*
X106809403Y-73067750D01*
X106813313Y-73075806D01*
X106810381Y-73084268D01*
X106809630Y-73085038D01*
X106601426Y-73280002D01*
X106471202Y-73410226D01*
X106462929Y-73413653D01*
X106454656Y-73410226D01*
X106452590Y-73407431D01*
X106276886Y-73075806D01*
X106267040Y-73057224D01*
X106266196Y-73048310D01*
X106270485Y-73042295D01*
X106543093Y-72843532D01*
X106551794Y-72841428D01*
X106557753Y-72844239D01*
G37*
%TD.AperFunction*%
%TD*%
%TA.AperFunction,Conductor*%
%TO.N,+1V8*%
G36*
X106500657Y-72770975D02*
G01*
X106627742Y-72898060D01*
X106630056Y-72901352D01*
X106774369Y-73208110D01*
X106774790Y-73217055D01*
X106770289Y-73222815D01*
X106553341Y-73367997D01*
X106544560Y-73369750D01*
X106544517Y-73369741D01*
X106293703Y-73319061D01*
X106286272Y-73314064D01*
X106284552Y-73305276D01*
X106285051Y-73303522D01*
X106481418Y-72775170D01*
X106487511Y-72768611D01*
X106496460Y-72768281D01*
X106500657Y-72770975D01*
G37*
%TD.AperFunction*%
%TD*%
%TA.AperFunction,Conductor*%
%TO.N,+5V*%
G36*
X125983850Y-68003225D02*
G01*
X125984621Y-68004573D01*
X126202359Y-68452300D01*
X126202895Y-68461239D01*
X126200110Y-68465690D01*
X126070477Y-68595323D01*
X126062204Y-68598750D01*
X126057087Y-68597572D01*
X125609360Y-68379834D01*
X125603419Y-68373134D01*
X125603955Y-68364195D01*
X125604716Y-68362864D01*
X125748108Y-68146598D01*
X125751385Y-68143321D01*
X125967637Y-67999938D01*
X125976422Y-67998223D01*
X125983850Y-68003225D01*
G37*
%TD.AperFunction*%
%TD*%
%TA.AperFunction,Conductor*%
%TO.N,+5V*%
G36*
X128037347Y-71934440D02*
G01*
X128044775Y-71939442D01*
X128046608Y-71947552D01*
X127979870Y-72417642D01*
X127975314Y-72425351D01*
X127968286Y-72427697D01*
X127588600Y-72427697D01*
X127580327Y-72424270D01*
X127577016Y-72417642D01*
X127510277Y-71947552D01*
X127512507Y-71938879D01*
X127519536Y-71934440D01*
X127776123Y-71882451D01*
X127780763Y-71882451D01*
X128037347Y-71934440D01*
G37*
%TD.AperFunction*%
%TD*%
%TA.AperFunction,Conductor*%
%TO.N,+5V*%
G36*
X125215825Y-71865810D02*
G01*
X125482910Y-72132895D01*
X125486268Y-72139899D01*
X125518555Y-72435717D01*
X125516046Y-72444313D01*
X125509230Y-72448457D01*
X125251603Y-72500242D01*
X125246980Y-72500239D01*
X124993746Y-72449070D01*
X124986315Y-72444073D01*
X124984595Y-72435285D01*
X124985105Y-72433502D01*
X125196599Y-71869970D01*
X125202713Y-71863430D01*
X125211663Y-71863129D01*
X125215825Y-71865810D01*
G37*
%TD.AperFunction*%
%TD*%
%TA.AperFunction,Conductor*%
%TO.N,+5V*%
G36*
X127372238Y-71396328D02*
G01*
X127377330Y-71398679D01*
X127918830Y-71648606D01*
X127924906Y-71655184D01*
X127924550Y-71664132D01*
X127923675Y-71665700D01*
X127780746Y-71881017D01*
X127777479Y-71884287D01*
X127558790Y-72029774D01*
X127550003Y-72031504D01*
X127543109Y-72027262D01*
X127358136Y-71791847D01*
X127355636Y-71784618D01*
X127355636Y-71406952D01*
X127359063Y-71398679D01*
X127367336Y-71395252D01*
X127372238Y-71396328D01*
G37*
%TD.AperFunction*%
%TD*%
%TA.AperFunction,Conductor*%
%TO.N,+5V*%
G36*
X127706531Y-68405353D02*
G01*
X127712472Y-68412053D01*
X127712881Y-68413552D01*
X127764406Y-68667844D01*
X127764406Y-68672490D01*
X127712881Y-68926781D01*
X127707879Y-68934209D01*
X127699091Y-68935925D01*
X127697592Y-68935516D01*
X127227039Y-68772889D01*
X127220339Y-68766948D01*
X127219161Y-68761831D01*
X127219161Y-68578502D01*
X127222588Y-68570229D01*
X127227037Y-68567444D01*
X127697593Y-68404817D01*
X127706531Y-68405353D01*
G37*
%TD.AperFunction*%
%TD*%
%TA.AperFunction,Conductor*%
%TO.N,/PCIE_CLK_P*%
G36*
X120215098Y-66384594D02*
G01*
X120594658Y-66536681D01*
X120601063Y-66542940D01*
X120601788Y-66549790D01*
X120552218Y-66802984D01*
X120547265Y-66810445D01*
X120542984Y-66812218D01*
X120289790Y-66861788D01*
X120281013Y-66860015D01*
X120276681Y-66854658D01*
X120124594Y-66475098D01*
X120124698Y-66466144D01*
X120127179Y-66462476D01*
X120202474Y-66387181D01*
X120210746Y-66383755D01*
X120215098Y-66384594D01*
G37*
%TD.AperFunction*%
%TD*%
%TA.AperFunction,Conductor*%
%TO.N,/PCIE_TX_N*%
G36*
X106331156Y-69343938D02*
G01*
X106332857Y-69344876D01*
X106546933Y-69487294D01*
X106551923Y-69494729D01*
X106551935Y-69494793D01*
X106601495Y-69748677D01*
X106599717Y-69757454D01*
X106592705Y-69762305D01*
X106151828Y-69866595D01*
X106142989Y-69865164D01*
X106137749Y-69857902D01*
X106137435Y-69855209D01*
X106137435Y-69750579D01*
X106138456Y-69745799D01*
X106250812Y-69494793D01*
X106315697Y-69349836D01*
X106322205Y-69343686D01*
X106331156Y-69343938D01*
G37*
%TD.AperFunction*%
%TD*%
%TA.AperFunction,Conductor*%
%TO.N,/PCIE_CLK_N*%
G36*
X120542984Y-65707781D02*
G01*
X120550445Y-65712734D01*
X120552218Y-65717015D01*
X120601788Y-65970209D01*
X120600015Y-65978986D01*
X120594658Y-65983318D01*
X120215098Y-66135405D01*
X120206144Y-66135301D01*
X120202473Y-66132817D01*
X120127182Y-66057526D01*
X120123755Y-66049253D01*
X120124594Y-66044901D01*
X120149270Y-65983318D01*
X120276681Y-65665340D01*
X120282940Y-65658936D01*
X120289790Y-65658211D01*
X120542984Y-65707781D01*
G37*
%TD.AperFunction*%
%TD*%
%TA.AperFunction,Conductor*%
%TO.N,/PCIE_RX_P*%
G36*
X108509753Y-66538290D02*
G01*
X108509993Y-66538890D01*
X108683948Y-67010936D01*
X108684670Y-67014982D01*
X108684670Y-67118670D01*
X108681243Y-67126943D01*
X108672970Y-67130370D01*
X108669327Y-67129789D01*
X108157969Y-66962264D01*
X108151174Y-66956431D01*
X108150258Y-66948324D01*
X108223321Y-66654492D01*
X108228643Y-66647292D01*
X108230017Y-66646584D01*
X108494370Y-66532197D01*
X108503322Y-66532058D01*
X108509753Y-66538290D01*
G37*
%TD.AperFunction*%
%TD*%
%TA.AperFunction,Conductor*%
%TO.N,/ENABLE_1V8*%
G36*
X124352593Y-67954107D02*
G01*
X124496608Y-68168239D01*
X124498381Y-68177016D01*
X124496608Y-68181298D01*
X124352593Y-68395429D01*
X124345132Y-68400381D01*
X124338341Y-68399681D01*
X123962441Y-68241283D01*
X123956147Y-68234912D01*
X123955284Y-68230501D01*
X123955284Y-68119034D01*
X123958711Y-68110761D01*
X123962441Y-68108252D01*
X124338342Y-67949853D01*
X124347295Y-67949799D01*
X124352593Y-67954107D01*
G37*
%TD.AperFunction*%
%TD*%
%TA.AperFunction,Conductor*%
%TO.N,/ENABLE_1V8*%
G36*
X123679684Y-68116734D02*
G01*
X123685371Y-68123651D01*
X123685878Y-68127057D01*
X123685878Y-68236042D01*
X123685062Y-68240336D01*
X123557294Y-68564169D01*
X123551069Y-68570607D01*
X123544136Y-68571352D01*
X123290700Y-68521126D01*
X123283250Y-68516156D01*
X123281491Y-68511891D01*
X123232368Y-68260243D01*
X123234146Y-68251468D01*
X123240442Y-68246811D01*
X123670773Y-68115864D01*
X123679684Y-68116734D01*
G37*
%TD.AperFunction*%
%TD*%
%TA.AperFunction,Conductor*%
%TO.N,/PCIE_TX_P*%
G36*
X106151822Y-70023403D02*
G01*
X106592706Y-70127695D01*
X106599967Y-70132934D01*
X106601495Y-70141322D01*
X106551935Y-70395206D01*
X106546987Y-70402669D01*
X106546933Y-70402705D01*
X106332857Y-70545123D01*
X106324070Y-70546853D01*
X106316635Y-70541863D01*
X106315697Y-70540162D01*
X106138456Y-70144200D01*
X106137435Y-70139420D01*
X106137435Y-70034790D01*
X106140862Y-70026517D01*
X106149135Y-70023090D01*
X106151822Y-70023403D01*
G37*
%TD.AperFunction*%
%TD*%
%TA.AperFunction,Conductor*%
%TO.N,/PCIE_RX_N*%
G36*
X108684388Y-67290438D02*
G01*
X108690170Y-67297276D01*
X108690725Y-67300837D01*
X108690725Y-67404615D01*
X108689982Y-67408719D01*
X108514329Y-67877677D01*
X108508218Y-67884222D01*
X108499268Y-67884530D01*
X108498688Y-67884294D01*
X108234312Y-67768792D01*
X108228103Y-67762340D01*
X108227628Y-67760840D01*
X108156076Y-67467066D01*
X108157448Y-67458217D01*
X108163880Y-67453153D01*
X108675464Y-67289692D01*
X108684388Y-67290438D01*
G37*
%TD.AperFunction*%
%TD*%
%TA.AperFunction,Conductor*%
%TO.N,/PCIE_DET_WAKE*%
G36*
X127639247Y-65048699D02*
G01*
X128017058Y-65202498D01*
X128023429Y-65208792D01*
X128024129Y-65215583D01*
X127974548Y-65468830D01*
X127969595Y-65476291D01*
X127965314Y-65478064D01*
X127712067Y-65527645D01*
X127703290Y-65525872D01*
X127698982Y-65520574D01*
X127677918Y-65468830D01*
X127545184Y-65142765D01*
X127545239Y-65133813D01*
X127547745Y-65130086D01*
X127626568Y-65051263D01*
X127634840Y-65047837D01*
X127639247Y-65048699D01*
G37*
%TD.AperFunction*%
%TD*%
%TA.AperFunction,Conductor*%
%TO.N,/PCIE_RST_B*%
G36*
X122460588Y-63322909D02*
G01*
X122464318Y-63325418D01*
X122543137Y-63404237D01*
X122546564Y-63412510D01*
X122545701Y-63416921D01*
X122391903Y-63794728D01*
X122385609Y-63801099D01*
X122378818Y-63801799D01*
X122125571Y-63752218D01*
X122118110Y-63747265D01*
X122116337Y-63742984D01*
X122066756Y-63489735D01*
X122068529Y-63480960D01*
X122073825Y-63476652D01*
X122451636Y-63322854D01*
X122460588Y-63322909D01*
G37*
%TD.AperFunction*%
%TD*%
%TA.AperFunction,Conductor*%
%TO.N,/PCIE_PWR_EN*%
G36*
X122316278Y-72484648D02*
G01*
X122786838Y-72647277D01*
X122793538Y-72653218D01*
X122794716Y-72658335D01*
X122794716Y-72841664D01*
X122791289Y-72849937D01*
X122786838Y-72852722D01*
X122316284Y-73015349D01*
X122307345Y-73014813D01*
X122301404Y-73008113D01*
X122300995Y-73006614D01*
X122249470Y-72752319D01*
X122249470Y-72747680D01*
X122300995Y-72493384D01*
X122305997Y-72485957D01*
X122314785Y-72484241D01*
X122316278Y-72484648D01*
G37*
%TD.AperFunction*%
%TD*%
%TA.AperFunction,Conductor*%
%TO.N,/PCIE_PWR_EN*%
G36*
X124517651Y-72235186D02*
G01*
X124523592Y-72241886D01*
X124524001Y-72243385D01*
X124575526Y-72497677D01*
X124575526Y-72502323D01*
X124524001Y-72756614D01*
X124518999Y-72764042D01*
X124510211Y-72765758D01*
X124508712Y-72765349D01*
X124038159Y-72602722D01*
X124031459Y-72596781D01*
X124030281Y-72591664D01*
X124030281Y-72408335D01*
X124033708Y-72400062D01*
X124038157Y-72397277D01*
X124508713Y-72234650D01*
X124517651Y-72235186D01*
G37*
%TD.AperFunction*%
%TD*%
%TA.AperFunction,Conductor*%
%TO.N,/PCIE_PWR_EN*%
G36*
X122197765Y-64817879D02*
G01*
X122203420Y-64824822D01*
X122203682Y-64825870D01*
X122254547Y-65078923D01*
X122252817Y-65087710D01*
X122252781Y-65087764D01*
X122108815Y-65301568D01*
X122101352Y-65306516D01*
X122092575Y-65304738D01*
X122092215Y-65304485D01*
X121877867Y-65147672D01*
X121719383Y-65031728D01*
X121714729Y-65024077D01*
X121716848Y-65015377D01*
X121718012Y-65014019D01*
X121796079Y-64935951D01*
X121800994Y-64933018D01*
X122188859Y-64816967D01*
X122197765Y-64817879D01*
G37*
%TD.AperFunction*%
%TD*%
%TA.AperFunction,Conductor*%
%TO.N,/PCIE_CLKREQ_N*%
G36*
X121962493Y-62457828D02*
G01*
X122107025Y-62672729D01*
X122108798Y-62681506D01*
X122108783Y-62681581D01*
X122057530Y-62934532D01*
X122052528Y-62941960D01*
X122043740Y-62943676D01*
X122043250Y-62943566D01*
X121587195Y-62830587D01*
X121579988Y-62825271D01*
X121578308Y-62819230D01*
X121578308Y-62707626D01*
X121581735Y-62699353D01*
X121583487Y-62697912D01*
X121946269Y-62454639D01*
X121955048Y-62452878D01*
X121962493Y-62457828D01*
G37*
%TD.AperFunction*%
%TD*%
%TA.AperFunction,Conductor*%
%TO.N,Net-(C4-Pad2)*%
G36*
X107010790Y-66422796D02*
G01*
X107259153Y-66642195D01*
X107263085Y-66650241D01*
X107261217Y-66657340D01*
X107077103Y-66940587D01*
X107069721Y-66945656D01*
X107063523Y-66945287D01*
X106713648Y-66826199D01*
X106706920Y-66820289D01*
X106705718Y-66815123D01*
X106705718Y-66701540D01*
X106709145Y-66693267D01*
X106709356Y-66693060D01*
X106995009Y-66423061D01*
X107003373Y-66419870D01*
X107010790Y-66422796D01*
G37*
%TD.AperFunction*%
%TD*%
%TA.AperFunction,Conductor*%
%TO.N,Net-(C4-Pad2)*%
G36*
X106711658Y-66535086D02*
G01*
X107087559Y-66693484D01*
X107093853Y-66699855D01*
X107094716Y-66704266D01*
X107094716Y-66815733D01*
X107091289Y-66824006D01*
X107087559Y-66826515D01*
X106711658Y-66984913D01*
X106702704Y-66984968D01*
X106697406Y-66980661D01*
X106553390Y-66766528D01*
X106551618Y-66757752D01*
X106553391Y-66753471D01*
X106591707Y-66696500D01*
X106697406Y-66539338D01*
X106704867Y-66534386D01*
X106711658Y-66535086D01*
G37*
%TD.AperFunction*%
%TD*%
%TA.AperFunction,Conductor*%
%TO.N,Net-(C8-Pad2)*%
G36*
X107076551Y-67470747D02*
G01*
X107081569Y-67475045D01*
X107265616Y-67758189D01*
X107267251Y-67766993D01*
X107263736Y-67773167D01*
X107019113Y-67998674D01*
X107010708Y-68001762D01*
X107003336Y-67998750D01*
X106713853Y-67736984D01*
X106710015Y-67728894D01*
X106710000Y-67728306D01*
X106710000Y-67614567D01*
X106713427Y-67606294D01*
X106717538Y-67603632D01*
X107067600Y-67470485D01*
X107076551Y-67470747D01*
G37*
%TD.AperFunction*%
%TD*%
%TA.AperFunction,Conductor*%
%TO.N,Net-(C8-Pad2)*%
G36*
X106711658Y-67445086D02*
G01*
X107087559Y-67603484D01*
X107093853Y-67609855D01*
X107094716Y-67614266D01*
X107094716Y-67725733D01*
X107091289Y-67734006D01*
X107087559Y-67736515D01*
X106711658Y-67894913D01*
X106702704Y-67894968D01*
X106697406Y-67890661D01*
X106553390Y-67676528D01*
X106551618Y-67667752D01*
X106553391Y-67663471D01*
X106591707Y-67606500D01*
X106697406Y-67449338D01*
X106704867Y-67444386D01*
X106711658Y-67445086D01*
G37*
%TD.AperFunction*%
%TD*%
M02*
