%TF.GenerationSoftware,KiCad,Pcbnew,9.0.0*%
%TF.CreationDate,2025-07-16T00:49:38-07:00*%
%TF.ProjectId,microsd_express,6d696372-6f73-4645-9f65-787072657373,rev?*%
%TF.SameCoordinates,Original*%
%TF.FileFunction,Paste,Top*%
%TF.FilePolarity,Positive*%
%FSLAX46Y46*%
G04 Gerber Fmt 4.6, Leading zero omitted, Abs format (unit mm)*
G04 Created by KiCad (PCBNEW 9.0.0) date 2025-07-16 00:49:38*
%MOMM*%
%LPD*%
G01*
G04 APERTURE LIST*
G04 Aperture macros list*
%AMRoundRect*
0 Rectangle with rounded corners*
0 $1 Rounding radius*
0 $2 $3 $4 $5 $6 $7 $8 $9 X,Y pos of 4 corners*
0 Add a 4 corners polygon primitive as box body*
4,1,4,$2,$3,$4,$5,$6,$7,$8,$9,$2,$3,0*
0 Add four circle primitives for the rounded corners*
1,1,$1+$1,$2,$3*
1,1,$1+$1,$4,$5*
1,1,$1+$1,$6,$7*
1,1,$1+$1,$8,$9*
0 Add four rect primitives between the rounded corners*
20,1,$1+$1,$2,$3,$4,$5,0*
20,1,$1+$1,$4,$5,$6,$7,0*
20,1,$1+$1,$6,$7,$8,$9,0*
20,1,$1+$1,$8,$9,$2,$3,0*%
G04 Aperture macros list end*
%ADD10RoundRect,0.121500X-0.121500X-0.166500X0.121500X-0.166500X0.121500X0.166500X-0.121500X0.166500X0*%
%ADD11RoundRect,0.157500X-0.382500X0.157500X-0.382500X-0.157500X0.382500X-0.157500X0.382500X0.157500X0*%
%ADD12RoundRect,0.225000X-0.720000X0.270000X-0.720000X-0.270000X0.720000X-0.270000X0.720000X0.270000X0*%
%ADD13RoundRect,0.121500X0.166500X-0.121500X0.166500X0.121500X-0.166500X0.121500X-0.166500X-0.121500X0*%
%ADD14RoundRect,0.090000X0.675000X0.270000X-0.675000X0.270000X-0.675000X-0.270000X0.675000X-0.270000X0*%
%ADD15RoundRect,0.051435X0.051435X0.245745X-0.051435X0.245745X-0.051435X-0.245745X0.051435X-0.245745X0*%
%ADD16RoundRect,0.198990X0.898290X-0.498510X0.898290X0.498510X-0.898290X0.498510X-0.898290X-0.498510X0*%
%ADD17RoundRect,0.126000X0.153000X-0.126000X0.153000X0.126000X-0.153000X0.126000X-0.153000X-0.126000X0*%
%ADD18RoundRect,0.090000X-0.675000X-0.270000X0.675000X-0.270000X0.675000X0.270000X-0.675000X0.270000X0*%
%ADD19RoundRect,0.126000X-0.153000X0.126000X-0.153000X-0.126000X0.153000X-0.126000X0.153000X0.126000X0*%
%ADD20RoundRect,0.126000X0.126000X0.153000X-0.126000X0.153000X-0.126000X-0.153000X0.126000X-0.153000X0*%
%ADD21RoundRect,0.126000X-0.126000X-0.153000X0.126000X-0.153000X0.126000X0.153000X-0.126000X0.153000X0*%
G04 APERTURE END LIST*
D10*
%TO.C,R6*%
X122108755Y-62676787D03*
X123128755Y-62676787D03*
%TD*%
D11*
%TO.C,J1*%
X120550000Y-73410000D03*
X120550000Y-72310000D03*
X120550000Y-71210000D03*
X120550000Y-70110000D03*
X120550000Y-69010000D03*
X120550000Y-67910000D03*
X120550000Y-66810000D03*
X120550000Y-65710000D03*
X106550000Y-73370000D03*
X106550000Y-71310000D03*
X106550000Y-70400000D03*
X106550000Y-69490000D03*
X106550000Y-68580000D03*
X106550000Y-67670000D03*
X106550000Y-66760000D03*
X106550000Y-65850000D03*
X106550000Y-72220000D03*
X120550000Y-64610000D03*
D12*
X107000000Y-62800000D03*
X112500000Y-62800000D03*
X119700000Y-62800000D03*
X119700000Y-76500000D03*
X112500000Y-76500000D03*
X107000000Y-76500000D03*
%TD*%
D13*
%TO.C,R4*%
X127972330Y-65475846D03*
X127972330Y-64455846D03*
%TD*%
D14*
%TO.C,L2*%
X126238032Y-73494966D03*
X126238032Y-74794966D03*
%TD*%
D10*
%TO.C,R1*%
X122290730Y-69545349D03*
X123310730Y-69545349D03*
%TD*%
D15*
%TO.C,U1*%
X124250000Y-71659280D03*
X124749999Y-71659280D03*
X125250000Y-71659280D03*
X125750000Y-71659280D03*
X126250001Y-71659280D03*
X126750000Y-71659280D03*
X126750000Y-68916080D03*
X126250001Y-68916080D03*
X125750000Y-68916080D03*
X125250000Y-68916080D03*
X124749999Y-68916080D03*
X124250000Y-68916080D03*
D16*
X125500000Y-70287680D03*
%TD*%
D17*
%TO.C,C7*%
X127778443Y-71882981D03*
X127778443Y-70922981D03*
%TD*%
D18*
%TO.C,L1*%
X126171040Y-67150000D03*
X126171040Y-65850000D03*
%TD*%
D19*
%TO.C,C11*%
X122333808Y-70527046D03*
X122333808Y-71487046D03*
%TD*%
%TO.C,C3*%
X127763877Y-68670167D03*
X127763877Y-69630167D03*
%TD*%
D20*
%TO.C,C5*%
X124597369Y-73774427D03*
X123637369Y-73774427D03*
%TD*%
%TO.C,C6*%
X124500396Y-66851272D03*
X123540396Y-66851272D03*
%TD*%
%TO.C,C1*%
X124593339Y-74777966D03*
X123633339Y-74777966D03*
%TD*%
D21*
%TO.C,C9*%
X122323996Y-68519600D03*
X123283996Y-68519600D03*
%TD*%
D10*
%TO.C,R5*%
X122118556Y-63750000D03*
X123138556Y-63750000D03*
%TD*%
D20*
%TO.C,C2*%
X124504304Y-65839034D03*
X123544304Y-65839034D03*
%TD*%
D13*
%TO.C,R3*%
X127970599Y-67421702D03*
X127970599Y-66401702D03*
%TD*%
%TO.C,R2*%
X122254803Y-66103005D03*
X122254803Y-65083005D03*
%TD*%
M02*
